<svg id="Calque_1" data-name="Calque 1" xmlns="http://www.w3.org/2000/svg" viewBox="0 0 841.89 249.8"><defs><style>.cls-1{fill:#e30613;}</style></defs><title>logo-jdd</title><path class="cls-1" d="M15.32,116v-3.4h9.2V32.05h-9.2V28.64H72.21v3.41H61.55V112.6h5.58C85.4,112.6,91,97.1,94.61,81.34h3.5V116Z"/><path class="cls-1" d="M132.94,90.16v5.3c0,10.08,1.81,18,13.07,18,9,0,17.08-5.92,22.15-13.23l2.3,1.64c-7.26,11-17.43,16-30.51,16-7,0-13.3-.5-19.83-3.41-10.3-4.53-17.68-13.36-17.68-28.24,0-20.17,16-31.63,34.25-31.63,20.95,0,35.47,13.23,35.23,35.54Zm10.41-3V69.74c0-4.41,1-12.1-5.45-12.1-5.57,0-5,8.18-5,12.1v17.4Z"/><path class="cls-1" d="M249.94,74.66c0,15.25.72,27.48-12.59,37.82-3,2.39-10.41,5.42-21.42,5.42-12.7,0-30.63-4.79-30.63-21.18,0-8.07,4.37-14.88,12.71-14.88,6.78,0,12.71,4.41,12.71,11.86,0,7.17-4.6,11.21-10.41,12.47-1.81.39-2.41,1-2.41,2.9,0,2.27,3.5,2.8,5.07,2.77,14.08-.21,11.53-24.11,11.7-29.62V32.05H202V28.64h56.65v3.41h-8.71Z"/><path class="cls-1" d="M315.59,61.8A30.57,30.57,0,0,1,327.7,85.5a32.31,32.31,0,0,1-10.9,24.33c-6.91,6-17.07,8.07-26.74,8.07s-19.85-2-26.76-8.07A32.3,32.3,0,0,1,252.41,85.5a30.54,30.54,0,0,1,12.11-23.7c6.9-5,16.32-7.18,25.54-7.18S308.69,56.75,315.59,61.8ZM284,105c0,5-.11,9.83,6.07,9.83,6.65,0,5.68-4.79,5.68-9.83V67.22c0-4.41,0-9.58-5.68-9.58S284,62.81,284,67.22Z"/><path class="cls-1" d="M408.11,116c-11.62,0-23.24,1.27-34.86,1.65V105.8a25.17,25.17,0,0,1-22.15,12.1c-12.82,0-19.73-4.79-19.73-24.2V59.4H325v-3c11.87,0,23.73-1.13,35.59-1.51v49.55c0,2.77,1.32,5,4.35,5,5.93,0,7.38-8.7,7.38-13.36V59.4h-6.4v-3c11.84,0,23.59-1.13,35.45-1.51V113h6.78Z"/><path class="cls-1" d="M410.68,59.4v-3c11.62,0,23.35-1.13,35-1.51V67.6h.24c4-7.7,10.9-12.48,19.48-12.48,8,0,15.62,4.91,15.62,14,0,8.71-5.81,14.76-14.17,14.76-8,0-13.54-5.42-13.54-13.86a25.12,25.12,0,0,1,.71-5.94c-1.81-3.15-5.44,4-5.81,5.3-1.69,4.92-1.33,9.45-1.33,14.63v29h8.6v3H410.68v-3h6.41V59.4Z"/><path class="cls-1" d="M516.83,66.72A25,25,0,0,1,538,54.62c11.38,0,19.62,5,19.62,23.32V113h6.52v3H524.34v-3h4.24V74.91c0-3.91,1.09-11.09-4.37-11.09-5.2,0-7.38,7.94-7.38,12V113h4.24v3H481v-3h6.67V59.4h-6.41v-3c11.85,0,23.71-1.13,35.57-1.51Z"/><path class="cls-1" d="M605.54,65.71c0-5.68-1.33-7.7-6.9-7.7-2.18,0-4.84.25-4.84,1.39,0,1.64,4.47,3.15,4.47,8.83,0,8.7-9.67,10.08-16.1,10.08-5.92,0-13.3-2.52-13.3-10,0-5.55,3-13.74,30.13-13.74,6.06,0,16,.87,21.78,2.39,8,1.89,13.09,5.54,13.09,15V105.8c0,1.38.47,3,2,3,2.31,0,3.51-1.76,5-3.28V110c-4.61,5.55-12.11,7.94-18.88,7.94s-12.36-1.64-15.49-8.7c-6,6.93-14.89,8.7-23.49,8.7-9.2,0-18.87-4.16-18.87-15.39,0-8.31,4.23-16.88,21.18-19.29a90.26,90.26,0,0,1,14.28-1h5.93Zm0,19.53h-4.37c-7.49,0-6.52,9-6.52,14.76,0,3.66-.24,10.46,4.59,10.46,6.66,0,6.3-7.95,6.3-12.6Z"/><path class="cls-1" d="M641.12,116v-3h6.78V31.67h-7v-3c12.11,0,24.21-1.51,36.31-1.89V113H684v3Z"/><path class="cls-1" d="M94.72,206.86v3c-11.25,0-22.52,1.25-33.89,1.63V200.06c-4.48,8.07-9.57,11.72-18.64,11.72-16.47,0-24.81-15.76-24.81-31.26,0-15.89,8-32,25-32,7.14,0,12.71,3.41,16.95,9.33V125.55H49.56v-3c13,0,25.79-1.51,38.73-1.88v86.22ZM59.37,169.8c0-8.57-2.66-13.62-6.78-13.62-4.6,0-4.35,5.8-4.35,13.62v19.66c0,11.85,1.45,14.88,4.47,14.88,3.88,0,6.66-5.55,6.66-14.88Z"/><path class="cls-1" d="M175.24,210.73c-11.62,0-23.24,1.26-34.86,1.64V200.52a25.14,25.14,0,0,1-22.14,12.1c-12.83,0-19.74-4.8-19.74-24.2V154.13H92.09v-3c11.86,0,23.71-1.14,35.58-1.52v49.56c0,2.76,1.33,5,4.37,5,5.92,0,7.37-8.69,7.37-13.36V154.13H133v-3c11.86,0,23.61-1.14,35.46-1.52V207.7h6.79Z"/><path class="cls-1" d="M246.66,122.52c26.14,0,44.41,15.26,44.41,43.62,0,21.31-9.8,39-34,43-6.9,1.14-14,.76-20.94.76H193.88v-3.4h9V125.93h-8.72v-3.41Zm-7.38,84h5.31c5.58,0,7.76-2,7.76-17.91V139c0-11.36-5.08-13.11-9.31-13.11h-3.76Z"/><path class="cls-1" d="M293.43,209.55v-3h6.65V153h-6.41v-3c12.1,0,24.09-1.13,36.19-1.52v58.13h6.4v3Zm37.51-78c0,9.33-8.71,12.36-16.2,12.36s-16.23-3-16.23-12.36c0-10,8.35-12.48,16.23-12.48S330.94,121.55,330.94,131.51Z"/><path class="cls-1" d="M338.55,153.28v-3c11,0,22.16-1.14,33.18-1.52v13c5.07-7.44,12.22-13.24,21.29-13.24,7.88,0,15.25,3.91,17.08,12.61,4.22-6.94,12.82-12.61,20.68-12.61,14.05,0,18.76,7.06,18.76,25.21v33.16h6.66v3H417.84v-3h3.63V169.8c0-3.41,1.08-11.86-4-11.86-3.75,0-6.05,6.31-6.05,12.11v36.81h3.63v3H379.71v-3h3.63V169.29c0-6.3.25-11.35-3.75-11.35S373.3,164,373.3,169v37.82h3.27v3h-38v-3h6.67V153.28Z"/><path class="cls-1" d="M495.71,159.58c0-5.67-1.33-7.68-6.91-7.68-2.17,0-4.83.25-4.83,1.38,0,1.64,4.47,3.15,4.47,8.83,0,8.7-9.68,10.07-16.09,10.07-5.92,0-13.31-2.51-13.31-10,0-5.54,3-13.74,30.13-13.74,6.05,0,16,.88,21.79,2.4,8,1.89,13.07,5.54,13.07,15v33.78c0,1.39.48,3,2.06,3,2.3,0,3.5-1.77,5-3.28v4.41c-4.6,5.54-12.1,7.94-18.88,7.94s-12.34-1.64-15.48-8.7c-6.06,6.93-14.9,8.7-23.48,8.7-9.2,0-18.9-4.16-18.9-15.38,0-8.32,4.24-16.89,21.19-19.29a89.18,89.18,0,0,1,14.28-1h5.93Zm0,19.55h-4.35c-7.52,0-6.55,9-6.55,14.74,0,3.66-.24,10.47,4.6,10.47,6.66,0,6.3-7.94,6.3-12.61Z"/><path class="cls-1" d="M566.89,160.59a24.91,24.91,0,0,1,21.17-12.1c11.38,0,19.6,5,19.6,23.32v35.05h6.53v3h-39.8v-3h4.22V168.79c0-3.91,1.11-11.1-4.35-11.1-5.2,0-7.37,7.94-7.37,12v37.19h4.23v3H531.05v-3h6.66V153.28H531.3v-3c11.86,0,23.71-1.14,35.59-1.52Z"/><path class="cls-1" d="M680.2,193c-5.92,14.12-18,18.78-32.06,18.78-21.92,0-36.91-11.85-36.91-31.39,0-21.82,19.59-31.9,38.24-31.9,23.48,0,30.38,10.47,30.38,20.42,0,8.45-5.71,14-13.68,14a12.77,12.77,0,0,1-12.95-12.85c0-6.94,3.51-10.21,9-13,.48-.25,1.92-.88,1.92-1.64,0-2.52-6-3.4-7.62-3.4-10.17,0-15,2.52-13.42,34.16.47,10,1.44,20.68,13.79,20.68,9.8,0,16.59-6.56,20.58-15.38Z"/><path class="cls-1" d="M713.31,206.86h4.24v3H677.49v-3h6.65V125.55h-6.41v-3c11.86,0,23.72-1.51,35.58-1.88v40a25,25,0,0,1,21.19-12.1c14.4,0,19.73,9.33,19.73,22.44v35.93h6.41v3H720.82v-3h4.23V170.3c0-3.91.61-12.61-4.35-12.61-2.3,0-7.39,1.51-7.39,22.45Z"/><path class="cls-1" d="M788.42,184v5.3c0,10.09,1.81,18,13.06,18,9,0,17.08-5.92,22.16-13.23l2.29,1.63c-7.25,11-17.42,16-30.49,16-7,0-13.31-.5-19.85-3.41-10.28-4.53-17.67-13.36-17.67-28.23,0-20.17,16-31.65,34.25-31.65,20.94,0,35.47,13.24,35.22,35.55Zm10.41-3V163.61c0-4.41,1-12.09-5.45-12.09-5.56,0-5,8.18-5,12.09V181Z"/></svg>