<svg width="26" height="26" viewBox="0 0 26 26" fill="none" xmlns="http://www.w3.org/2000/svg">
    <mask id="mask0" mask-type="alpha" maskUnits="userSpaceOnUse" x="1" y="1" width="26" height="26">
        <path fill-rule="evenodd" clip-rule="evenodd" d="M12.5761 2.36701C9.53641 2.39485 6.68328 3.60696 4.53087 5.78711C2.35347 7.99304 1.15454 10.9263 1.15454 14.0461C1.15454 17.1657 2.35347 20.0987 4.53087 22.3049C6.70878 24.5106 9.60408 25.7255 12.6835 25.7255C15.7628 25.7255 18.6581 24.5106 20.8358 22.3049C23.0129 20.0987 24.2124 17.1657 24.2124 14.0461H22.2001C22.2001 16.6214 21.21 19.0423 19.4126 20.8631C17.6153 22.684 15.2255 23.6871 12.6835 23.6871C10.1414 23.6871 7.7514 22.684 5.95403 20.8631C4.15665 19.0423 3.16655 16.6214 3.16655 14.0461C3.16655 11.4709 4.15665 9.04974 5.95403 7.22887C7.72615 5.43351 10.0743 4.43351 12.5761 4.40567V5.88196L14.9237 3.57784L12.5761 1.27371V2.36701ZM12.5979 7.60696C11.3212 7.65077 10.3384 8.02036 9.67655 8.70541C9.23365 9.16392 8.98947 9.8 9.00613 10.4467L8.99326 20.6284H11.2197L11.1851 10.5593C11.3434 9.58247 12.7514 9.41289 12.7638 9.4116C13.8119 9.30748 14.621 9.51727 15.1682 10.0356C15.9691 10.7938 15.9436 11.9776 15.9429 11.9933C15.9323 13.0809 15.6032 13.8317 14.9657 14.2255C14.0854 14.7686 12.5317 14.5727 12.516 14.5704L12.3176 14.5443V16.3394L12.4971 16.3515C13.1973 16.3992 13.9064 16.3861 14.6053 16.3134C15.7323 16.1866 16.5949 15.724 17.1693 14.9384C18.2975 13.3969 17.9185 11.1727 17.8935 11.034C17.6589 9.40876 16.6615 8.30052 15.0086 7.82887C14.2975 7.62603 13.6157 7.58196 13.1579 7.58196C12.8486 7.58196 12.6415 7.60206 12.5979 7.60696Z" fill="white"/>
    </mask>
    <g mask="url(#mask0)">
        <path fill-rule="evenodd" clip-rule="evenodd" d="M-0.342896 27.2536H25.7097V-0.254379H-0.342896V27.2536Z" fill="white"/>
    </g>
    <path d="M12.5761 4.40577H12.8261V4.15297L12.5734 4.15579L12.5761 4.40577ZM5.95403 7.22897L6.13195 7.40459L6.13195 7.40459L5.95403 7.22897ZM5.95403 20.8632L5.77611 21.0389L5.77613 21.0389L5.95403 20.8632ZM19.4126 20.8632L19.5905 21.0389L19.5906 21.0389L19.4126 20.8632ZM22.2001 14.046V13.796H21.9501V14.046H22.2001ZM24.2124 14.046H24.4624V13.796H24.2124V14.046ZM20.8358 22.3047L21.0137 22.4804L21.0137 22.4804L20.8358 22.3047ZM4.53112 22.3047L4.35319 22.4804L4.35322 22.4804L4.53112 22.3047ZM4.53112 5.78721L4.35321 5.61158L4.3532 5.61159L4.53112 5.78721ZM12.5761 2.36685L12.5785 2.61684L12.8261 2.61455V2.36685H12.5761ZM12.5761 1.27381L12.7513 1.09539L12.3261 0.678146V1.27381H12.5761ZM14.9237 3.57793L15.0989 3.75636L15.2806 3.57793L15.0989 3.39951L14.9237 3.57793ZM12.5761 5.88206H12.3261V6.47772L12.7513 6.06048L12.5761 5.88206ZM11.2197 20.6285V20.8785H11.4705L11.4696 20.6276L11.2197 20.6285ZM8.99351 20.6285L8.74351 20.6281L8.7432 20.8785H8.99351V20.6285ZM9.00613 10.4465L9.25622 10.4468L9.25605 10.44L9.00613 10.4465ZM9.67655 8.70551L9.85631 8.87925L9.85638 8.87918L9.67655 8.70551ZM12.5979 7.6068L12.6064 7.85665L12.6154 7.85635L12.6243 7.85539L12.5979 7.6068ZM15.0086 7.82897L14.94 8.06936L14.94 8.06937L15.0086 7.82897ZM17.8938 11.0341L17.6462 11.0699L17.6477 11.0781L17.8938 11.0341ZM17.1693 14.9385L16.9676 14.7909L16.9675 14.7909L17.1693 14.9385ZM14.6053 16.3135L14.6312 16.5622L14.6333 16.5619L14.6053 16.3135ZM12.4971 16.3516L12.5141 16.1022L12.5139 16.1022L12.4971 16.3516ZM12.3176 16.3395H12.0676V16.5732L12.3007 16.589L12.3176 16.3395ZM12.3176 14.5442L12.3504 14.2963L12.0676 14.2589V14.5442H12.3176ZM12.5163 14.5705L12.5495 14.3227L12.5491 14.3226L12.5163 14.5705ZM14.9659 14.2254L15.0972 14.4381L15.0973 14.4381L14.9659 14.2254ZM15.9431 11.9931L15.6932 11.9851L15.6931 11.9906L15.9431 11.9931ZM15.1684 10.0354L15.3403 9.85389L15.3403 9.85386L15.1684 10.0354ZM12.7638 9.41144L12.739 9.16258L12.7328 9.16337L12.7638 9.41144ZM11.1851 10.5591L10.9383 10.5191L10.935 10.5394L10.9351 10.56L11.1851 10.5591ZM12.5734 4.15579C10.0051 4.18436 7.59418 5.21143 5.7761 7.05334L6.13195 7.40459C7.85813 5.65578 10.1434 4.68285 12.5789 4.65575L12.5734 4.15579ZM5.77611 7.05334C3.93222 8.92133 2.91655 11.4057 2.91655 14.046H3.41655C3.41655 11.5363 4.38108 9.17835 6.13195 7.40459L5.77611 7.05334ZM2.91655 14.046C2.91655 16.6865 3.93222 19.1709 5.77611 21.0389L6.13195 20.6876C4.38108 18.9139 3.41655 16.556 3.41655 14.046H2.91655ZM5.77613 21.0389C7.62036 22.9067 10.074 23.937 12.6835 23.937V23.437C10.2088 23.437 7.88295 22.461 6.13192 20.6876L5.77613 21.0389ZM12.6835 23.937C15.2929 23.937 17.7466 22.9067 19.5905 21.0389L19.2347 20.6876C17.484 22.461 15.1581 23.437 12.6835 23.437V23.937ZM19.5906 21.0389C21.4344 19.1709 22.4501 16.6865 22.4501 14.046H21.9501C21.9501 16.556 20.9856 18.9139 19.2347 20.6876L19.5906 21.0389ZM22.2001 14.296H24.2124V13.796H22.2001V14.296ZM23.9624 14.046C23.9624 17.1003 22.7888 19.9701 20.6579 22.1291L21.0137 22.4804C23.2376 20.227 24.4624 17.2308 24.4624 14.046H23.9624ZM20.6579 22.1291C18.5268 24.2875 15.6955 25.4754 12.6835 25.4754V25.9754C15.8302 25.9754 18.7894 24.7333 21.0137 22.4804L20.6579 22.1291ZM12.6835 25.4754C9.67119 25.4754 6.84007 24.2875 4.70903 22.1291L4.35322 22.4804C6.5775 24.7333 9.53647 25.9754 12.6835 25.9754V25.4754ZM4.70906 22.1291C2.57816 19.9701 1.40454 17.1003 1.40454 14.046H0.904541C0.904541 17.2308 2.12928 20.227 4.35319 22.4804L4.70906 22.1291ZM1.40454 14.046C1.40454 10.9914 2.57816 8.12164 4.70905 5.96284L4.3532 5.61159C2.12928 7.86465 0.904541 10.8609 0.904541 14.046H1.40454ZM4.70904 5.96284C6.81513 3.82935 9.60552 2.64432 12.5785 2.61684L12.5738 2.11686C9.4678 2.14557 6.55143 3.38477 4.35321 5.61158L4.70904 5.96284ZM12.8261 2.36685V1.27381H12.3261V2.36685H12.8261ZM12.401 1.45223L14.7486 3.75636L15.0989 3.39951L12.7513 1.09539L12.401 1.45223ZM14.7486 3.39951L12.401 5.70364L12.7513 6.06048L15.0989 3.75636L14.7486 3.39951ZM12.8261 5.88206V4.40577H12.3261V5.88206H12.8261ZM11.2197 20.3785H8.99351V20.8785H11.2197V20.3785ZM9.24351 20.6288L9.25613 10.4468L8.75613 10.4462L8.74351 20.6281L9.24351 20.6288ZM9.25605 10.44C9.24108 9.85923 9.46102 9.28824 9.85631 8.87925L9.49679 8.53177C9.00627 9.03928 8.73786 9.74097 8.75622 10.4529L9.25605 10.44ZM9.85638 8.87918C10.4596 8.25462 11.3719 7.89902 12.6064 7.85665L12.5893 7.35695C11.2704 7.40221 10.2172 7.78579 9.49672 8.53184L9.85638 8.87918ZM12.6243 7.85539C12.7216 7.84503 13.794 7.74224 14.94 8.06936L15.0772 7.58857C13.8395 7.23528 12.6918 7.34538 12.5714 7.35821L12.6243 7.85539ZM14.94 8.06937C15.7292 8.29452 16.3484 8.66747 16.7973 9.16619C17.2458 9.66438 17.5353 10.3003 17.6463 11.0698L18.1412 10.9984C18.0177 10.1427 17.6912 9.41185 17.169 8.83169C16.6472 8.25206 15.9412 7.83506 15.0772 7.58856L14.94 8.06937ZM17.6477 11.0781C17.6582 11.137 17.756 11.7066 17.7143 12.446C17.6725 13.1886 17.4914 14.0751 16.9676 14.7909L17.3711 15.0861C17.9755 14.2602 18.169 13.2636 18.2135 12.4741C18.2582 11.6813 18.1541 11.0696 18.1399 10.9901L17.6477 11.0781ZM16.9675 14.7909C16.4413 15.5106 15.6474 15.9444 14.5773 16.0651L14.6333 16.5619C15.8171 16.4285 16.7484 15.9376 17.3711 15.0861L16.9675 14.7909ZM14.5795 16.0648C13.8946 16.1361 13.1999 16.1489 12.5141 16.1022L12.4801 16.6011C13.1947 16.6497 13.9181 16.6363 14.6312 16.5622L14.5795 16.0648ZM12.5139 16.1022L12.3344 16.0901L12.3007 16.589L12.4803 16.6011L12.5139 16.1022ZM12.5676 16.3395V14.5442H12.0676V16.3395H12.5676ZM12.2848 14.792L12.4835 14.8183L12.5491 14.3226L12.3504 14.2963L12.2848 14.792ZM12.4831 14.8183C12.4995 14.8204 12.9068 14.8716 13.426 14.8522C13.9364 14.8333 14.5996 14.7451 15.0972 14.4381L14.8346 14.0126C14.4517 14.2489 13.8978 14.3343 13.4074 14.3526C12.9257 14.3705 12.5485 14.3225 12.5495 14.3227L12.4831 14.8183ZM15.0973 14.4381C15.8373 13.9811 16.1818 13.1271 16.1931 11.9956L15.6931 11.9906C15.6827 13.0344 15.3692 13.6825 14.8346 14.0126L15.0973 14.4381ZM16.193 12.0012C16.1937 11.9787 16.1998 11.6554 16.0995 11.2348C15.9995 10.8153 15.7887 10.2785 15.3403 9.85389L14.9965 10.2169C15.3492 10.5509 15.5259 10.9851 15.6131 11.3508C15.7001 11.7155 15.693 11.9919 15.6933 11.9851L16.193 12.0012ZM15.3403 9.85386C14.722 9.2685 13.8298 9.05433 12.7391 9.16266L12.7885 9.66022C13.7945 9.5603 14.5205 9.76624 14.9965 10.217L15.3403 9.85386ZM12.7328 9.16337C12.7329 9.16335 12.7302 9.16369 12.7262 9.1642C12.7223 9.16471 12.7171 9.16541 12.7106 9.16633C12.6977 9.16816 12.6798 9.17085 12.6576 9.17456C12.6134 9.18196 12.5517 9.19347 12.4781 9.21043C12.3315 9.24415 12.1334 9.30034 11.9283 9.39081C11.5284 9.56715 11.038 9.9041 10.9383 10.5191L11.4318 10.5991C11.4905 10.2373 11.7832 10.0012 12.13 9.84831C12.2982 9.77415 12.4643 9.72667 12.5902 9.69768C12.6528 9.68328 12.7044 9.67368 12.7401 9.66771C12.7579 9.66473 12.7717 9.66267 12.7808 9.66138C12.7897 9.66012 12.7942 9.65957 12.7948 9.65951L12.7328 9.16337ZM10.9351 10.56L10.9697 20.6293L11.4696 20.6276L11.4351 10.5583L10.9351 10.56Z" fill="white"/>
</svg>
